<svg xmlns="http://www.w3.org/2000/svg" width="36" height="33" viewBox="0 0 36 33" fill="none"><path d="M33.6451 0H9.77243C9.38691 0 9.0744 0.312508 9.0744 0.698031C9.0744 1.08355 9.38691 1.39606 9.77243 1.39606H33.6451C34.03 1.39606 34.3431 1.7092 34.3431 2.09409V2.79212C34.3431 3.17702 34.03 3.49015 33.6451 3.49015H2.09409C1.7092 3.49015 1.39606 3.17702 1.39606 2.79212V2.09409C1.39606 1.7092 1.7092 1.39606 2.09409 1.39606H3.49015C3.87568 1.39606 4.18818 1.08355 4.18818 0.698031C4.18818 0.312508 3.87568 0 3.49015 0H2.09409C0.93941 0 0 0.93941 0 2.09409V2.79212C0 3.70208 0.583624 4.47794 1.39606 4.76608V25.1291C1.39606 25.8989 2.02233 26.5252 2.79212 26.5252H17.1716V28.0414C16.3591 28.3295 15.7755 29.1054 15.7755 30.0154C15.7755 31.1701 16.7149 32.1095 17.8696 32.1095C19.0243 32.1095 19.9637 31.1701 19.9637 30.0154C19.9637 29.1054 19.3801 28.3295 18.5676 28.0414V26.5252H32.9471C33.7168 26.5252 34.3431 25.899 34.3431 25.1292V4.76615C35.1556 4.47801 35.7392 3.70215 35.7392 2.79219V2.09416C35.7392 0.93941 34.7998 0 33.6451 0ZM17.8696 30.7135C17.4847 30.7135 17.1716 30.4004 17.1716 30.0155C17.1716 29.6306 17.4847 29.3174 17.8696 29.3174C18.2545 29.3174 18.5676 29.6306 18.5676 30.0155C18.5676 30.4004 18.2546 30.7135 17.8696 30.7135ZM2.79212 25.1291V4.88622H32.9471V25.1292L2.79212 25.1291Z" fill="white"></path><path d="M29.1994 7.81531H26.5178C25.3442 7.81531 24.3895 8.77 24.3895 9.94353C24.3895 10.4415 24.5585 10.9074 24.8563 11.2772L23.43 12.7034L22.2174 11.4907C21.3876 10.661 20.0376 10.661 19.2078 11.4907L15.621 15.0776L13.2285 12.6851C12.3987 11.8554 11.0486 11.8554 10.2189 12.6851L5.03483 17.8693C4.20515 18.699 4.20515 20.0491 5.03483 20.8788C5.44974 21.2937 5.99469 21.5011 6.53964 21.5011C7.08459 21.5011 7.62955 21.2937 8.04446 20.8788L11.7237 17.1995L14.1162 19.592C14.5181 19.9939 15.0525 20.2153 15.621 20.2153C16.1894 20.2153 16.7238 19.994 17.1258 19.5921L20.7127 16.0052L21.9253 17.2179C22.755 18.0476 24.1052 18.0475 24.9349 17.2179L27.8658 14.2869C28.2356 14.5847 28.7015 14.7535 29.1995 14.7535C30.373 14.7535 31.3277 13.7988 31.3277 12.6253V9.94353C31.3276 8.77 30.3729 7.81531 29.1994 7.81531ZM29.9316 12.6252C29.9316 13.0289 29.6031 13.3573 29.1994 13.3573C28.9172 13.3573 28.6648 13.1995 28.5407 12.9456C28.4418 12.7429 28.251 12.6005 28.0286 12.5633C27.8061 12.5261 27.5794 12.5987 27.4199 12.7582L23.9476 16.2305C23.6623 16.5158 23.1979 16.5159 22.9124 16.2305L21.2062 14.5243C21.0754 14.3934 20.8978 14.3198 20.7127 14.3198C20.5276 14.3198 20.35 14.3934 20.2191 14.5243L16.1386 18.6048C16.0004 18.7431 15.8165 18.8192 15.621 18.8192C15.4255 18.8192 15.2417 18.7431 15.1034 18.6048L12.2174 15.7187C12.0865 15.5878 11.9089 15.5142 11.7238 15.5142C11.5387 15.5142 11.3611 15.5878 11.2302 15.7187L7.0573 19.8916C6.77195 20.1769 6.30755 20.177 6.02205 19.8916C5.73663 19.6062 5.73663 19.1418 6.02205 18.8564L11.2061 13.6723C11.4916 13.3869 11.956 13.3869 12.2414 13.6723L15.1274 16.5584C15.4 16.8309 15.842 16.8309 16.1147 16.5584L20.1952 12.4779C20.4806 12.1925 20.945 12.1925 21.2304 12.4779L22.9366 14.1841C23.0675 14.315 23.2451 14.3885 23.4302 14.3885C23.6153 14.3885 23.7929 14.315 23.9238 14.1841L26.3849 11.723C26.5444 11.5635 26.617 11.3367 26.5798 11.1143C26.5426 10.8918 26.4002 10.701 26.1975 10.6021C25.9435 10.4781 25.7857 10.2257 25.7857 9.94346C25.7857 9.53972 26.1142 9.2113 26.5178 9.2113H29.1995C29.6032 9.2113 29.9316 9.53972 29.9316 9.94346V12.6252H29.9316Z" fill="white"></path><path d="M6.63157 1.39606C7.0171 1.39606 7.32961 1.08355 7.32961 0.698031C7.32961 0.312508 7.0171 0 6.63157 0H6.63109C6.24556 0 5.93333 0.312508 5.93333 0.698031C5.93333 1.08355 6.24605 1.39606 6.63157 1.39606Z" fill="white"></path></svg>