<svg xmlns="http://www.w3.org/2000/svg" width="23" height="39" viewBox="0 0 23 39" fill="none"><path d="M20.5661 26.0511H18.4527C18.4631 26.0409 18.474 26.0314 18.4843 26.0211C19.7313 24.7741 20.2228 22.9394 19.7671 21.2331C19.6402 20.757 19.2652 20.3877 18.7875 20.2678C17.0871 19.8212 15.2602 20.3144 14.0188 21.5557C13.9103 21.6643 13.8078 21.7776 13.7108 21.8946V19.538C18.0728 18.5036 21.3279 14.5762 21.3279 9.9023C21.3279 4.44217 16.8858 0 11.4256 0C10.0845 0 8.78319 0.263782 7.55797 0.78411C7.17079 0.948565 6.99011 1.39577 7.15457 1.78295C7.31902 2.17013 7.7663 2.35073 8.15341 2.18635C9.18934 1.74646 10.2902 1.52336 11.4256 1.52336C16.0457 1.52336 19.8045 5.28212 19.8045 9.90223C19.8045 14.5223 16.0457 18.2811 11.4256 18.2811C6.80547 18.2811 3.04671 14.5223 3.04671 9.90223C3.04671 8.76704 3.26966 7.66629 3.70948 6.63058C3.87393 6.2434 3.69326 5.79612 3.30608 5.63175C2.91897 5.46737 2.47162 5.64789 2.30724 6.03515C1.78706 7.26022 1.52328 8.5613 1.52328 9.90223C1.52328 14.576 4.77832 18.5034 9.14036 19.5379V21.8945C9.04339 21.7775 8.94094 21.6642 8.8324 21.5556C7.59111 20.3144 5.76451 19.8211 4.06398 20.2677C3.58608 20.3876 3.21101 20.7569 3.08419 21.2328C2.62845 22.9393 3.11999 24.774 4.36699 26.021C4.37728 26.0313 4.38817 26.0409 4.39853 26.0511H2.28515C1.02512 26.0511 0 27.0762 0 28.3362V29.0978C0 30.1375 0.698113 31.0166 1.64995 31.2925L2.84615 36.8744C3.12707 38.1855 3.99627 39 5.11439 39H17.7369C18.855 39 19.7241 38.1856 20.005 36.8744L21.2012 31.2925C22.1531 31.0165 22.8512 30.1374 22.8512 29.0978V28.3361C22.8512 27.0762 21.8261 26.0511 20.5661 26.0511ZM18.319 21.7209C18.5924 22.8764 18.2476 24.1033 17.407 24.9439C16.8059 25.545 16.0065 25.8911 15.177 25.9402L16.5276 24.5897C16.825 24.2923 16.825 23.8099 16.5276 23.5124C16.2301 23.2149 15.7478 23.215 15.4503 23.5124L14.0996 24.8631C14.1486 24.0338 14.4945 23.2345 15.0961 22.633C15.9362 21.7929 17.1638 21.4476 18.319 21.7209ZM11.4256 19.8046C11.6819 19.8046 11.9359 19.7948 12.1873 19.7756V26.0511H10.6638V19.7756C10.9152 19.7948 11.1693 19.8046 11.4256 19.8046ZM4.53213 21.7209C5.68758 21.4478 6.91508 21.7929 7.7551 22.633C8.35648 23.2344 8.70245 24.0337 8.7515 24.863L7.40091 23.5124C7.10346 23.215 6.62114 23.215 6.32361 23.5124C6.02608 23.8099 6.02616 24.2922 6.32361 24.5897L7.67413 25.9402C6.84478 25.8911 6.0452 25.545 5.44421 24.9439C4.60366 24.1033 4.25875 22.8767 4.53213 21.7209ZM1.52336 28.3362C1.52336 27.9162 1.86506 27.5745 2.28507 27.5745H20.5661C20.9861 27.5745 21.3278 27.9162 21.3278 28.3362V29.0978C21.3278 29.5179 20.9861 29.8596 20.5661 29.8596H2.28515C1.86514 29.8596 1.52343 29.5179 1.52343 29.0978L1.52336 28.3362ZM18.5154 36.5553C18.4691 36.7714 18.2761 37.4766 17.7368 37.4766H5.11439C4.57509 37.4766 4.38207 36.7714 4.33576 36.5553L3.22739 31.383H19.6239L18.5154 36.5553Z" fill="white"></path><path d="M10.8806 11.8709C10.5831 11.5734 10.1008 11.5734 9.80326 11.8709C9.50573 12.1683 9.5058 12.6506 9.80326 12.9482C10.0516 13.1964 10.3486 13.3668 10.6638 13.4594V13.7109C10.6638 14.1316 11.0049 14.4727 11.4256 14.4727C11.8463 14.4727 12.1873 14.1316 12.1873 13.7109V13.3086C12.3632 13.216 12.5282 13.0958 12.6759 12.9482C13.0596 12.5645 13.2709 12.0544 13.2709 11.5118C13.2709 10.9692 13.0596 10.4591 12.6759 10.0756L11.2524 8.65198C11.1565 8.55608 11.1037 8.42857 11.1037 8.29291C11.1037 8.15725 11.1564 8.02973 11.2524 7.93383C11.3483 7.83793 11.4758 7.78515 11.6114 7.78515C11.7471 7.78515 11.8746 7.83793 11.9705 7.93391C12.2679 8.23144 12.7503 8.23151 13.0477 7.93391C13.3452 7.63646 13.3452 7.15414 13.0477 6.85669C12.8039 6.61286 12.509 6.43896 12.1872 6.34436V6.09375C12.1872 5.67305 11.8462 5.33203 11.4255 5.33203C11.0048 5.33203 10.6638 5.67305 10.6638 6.09375V6.49533C10.486 6.58932 10.3213 6.71029 10.1751 6.85654C9.79145 7.24021 9.58015 7.75026 9.58015 8.29283C9.58015 8.8354 9.79145 9.34553 10.1751 9.72913L11.5987 11.1527C11.6946 11.2486 11.7474 11.3761 11.7474 11.5117C11.7474 11.6474 11.6946 11.7749 11.5986 11.8708C11.4007 12.0689 11.0785 12.0688 10.8806 11.8709Z" fill="white"></path><path d="M11.4257 16.7578C15.2058 16.7578 18.2812 13.6824 18.2812 9.90234C18.2812 6.12224 15.2058 3.04688 11.4257 3.04688C7.64562 3.04688 4.57025 6.12224 4.57025 9.90234C4.57018 13.6824 7.64554 16.7578 11.4257 16.7578ZM11.4257 4.57031C14.3658 4.57031 16.7578 6.96226 16.7578 9.90234C16.7578 12.8424 14.3658 15.2344 11.4257 15.2344C8.48564 15.2344 6.09369 12.8424 6.09369 9.90234C6.09369 6.96226 8.48564 4.57031 11.4257 4.57031Z" fill="white"></path><path d="M4.96189 4.20069C5.15697 4.20069 5.35205 4.1262 5.50081 3.97743C5.79826 3.67998 5.79826 3.19766 5.50081 2.90021C5.20336 2.60276 4.72111 2.60276 4.42359 2.90021L4.42321 2.90059C4.12576 3.19804 4.12591 3.68014 4.42336 3.97759C4.57212 4.12643 4.76697 4.20069 4.96189 4.20069Z" fill="white"></path></svg>