<svg xmlns="http://www.w3.org/2000/svg" width="41" height="37" viewBox="0 0 41 37" fill="none"><g clip-path="url(#clip0_61_65)"><path d="M38.1308 7.51261C38.4279 6.95037 38.5977 6.31011 38.5977 5.63043V4.02174C38.5977 1.80415 36.8015 0 34.5938 0C32.5526 0 30.8637 1.54274 30.6211 3.52867C27.7479 1.24272 24.214 0 20.5 0C16.786 0 13.2521 1.24272 10.3789 3.52948C10.1363 1.54354 8.44824 0 6.40625 0C4.1985 0 2.40234 1.80415 2.40234 4.02174V5.63043C2.40234 6.31011 2.57211 6.95037 2.8692 7.51261C1.10348 8.69741 0 10.7171 0 12.8696V15.2826C0 15.7266 0.35875 16.087 0.800781 16.087H4.16967C4.16727 16.1947 4.16486 16.3017 4.16486 16.4087C4.16486 18.5603 4.57406 20.6532 5.38045 22.6295C5.50777 22.9408 5.80646 23.129 6.12197 23.129C6.22287 23.129 6.32617 23.1097 6.42547 23.0687C6.83467 22.8998 7.03006 22.43 6.8627 22.019C6.13559 20.2374 5.76643 18.3496 5.76643 16.4087C5.76643 16.3017 5.76963 16.1947 5.77123 16.087H7.37359C7.37119 16.1947 7.36799 16.3017 7.36799 16.4087C7.36799 22.0737 10.9555 27.0977 16.2951 28.9099L16.3215 28.9187C15.8851 29.2992 15.5023 29.7359 15.1836 30.2145C13.5869 29.5944 12.1206 28.7048 10.8178 27.5634C10.4846 27.2714 9.97854 27.306 9.68785 27.6406C9.39717 27.9752 9.4316 28.4836 9.76473 28.7755C11.1693 30.007 12.7468 30.9746 14.4613 31.6591C14.2235 32.3332 14.0946 33.0498 14.0946 33.7826V36.1957C14.0946 36.6397 14.4533 37 14.8953 37H26.1063C26.5483 37 26.9071 36.6397 26.9071 36.1957V33.7826C26.9071 33.0482 26.7781 32.33 26.5387 31.6551C32.7303 29.1858 36.8359 23.1596 36.8359 16.4087C36.8359 16.3017 36.8327 16.1939 36.8311 16.087H40.1992C40.6413 16.087 41 15.7266 41 15.2826V12.8696C41 10.7163 39.8973 8.69741 38.1308 7.51261ZM32.1914 4.02174C32.1914 2.69135 33.2693 1.6087 34.5938 1.6087C35.9182 1.6087 36.9961 2.69135 36.9961 4.02174V5.63043C36.9961 6.96083 35.9182 8.04348 34.5938 8.04348C33.2693 8.04348 32.1914 6.96083 32.1914 5.63043V4.02174ZM30.5898 5.62561V5.63043C30.5898 6.31011 30.7588 6.95117 31.0567 7.51261C30.8917 7.62361 30.7332 7.74104 30.5802 7.86572L29.7058 7.00265C27.2346 4.56146 23.965 3.21739 20.5 3.21739C17.035 3.21739 13.7654 4.56146 11.2934 7.00265L10.4198 7.86572C10.2668 7.74104 10.1083 7.6228 9.9433 7.51261C10.2412 6.95037 10.4102 6.31011 10.4102 5.63043V5.6248C13.1536 3.03239 16.7227 1.6087 20.5 1.6087C24.2773 1.6087 27.8472 3.0332 30.5898 5.62561ZM4.00391 4.02174C4.00391 2.69135 5.08176 1.6087 6.40625 1.6087C7.73074 1.6087 8.80859 2.69135 8.80859 4.02174V5.63043C8.80859 6.96083 7.73074 8.04348 6.40625 8.04348C5.08176 8.04348 4.00391 6.96083 4.00391 5.63043V4.02174ZM1.60156 12.8696C1.60156 11.1997 2.48883 9.63609 3.8966 8.76096C4.58367 9.31756 5.45652 9.65217 6.40625 9.65217C7.35598 9.65217 8.22883 9.31756 8.9159 8.76096C10.3237 9.63609 11.2109 11.1997 11.2109 12.8696V14.4783H1.60156V12.8696ZM8.96875 16.4087C8.96875 16.3017 8.97195 16.1947 8.97436 16.087H12.0117C12.4537 16.087 12.8125 15.7266 12.8125 15.2826V12.8696C12.8125 11.4676 12.344 10.1219 11.5296 9.02639L12.4169 8.14965C14.587 6.00607 17.4578 4.82609 20.5 4.82609C23.5422 4.82609 26.4138 6.00687 28.5831 8.14965L29.4712 9.0272C28.6568 10.1235 28.1875 11.4692 28.1875 12.8696V15.2826C28.1875 15.7266 28.5462 16.087 28.9883 16.087H32.0256C32.0288 16.1947 32.0312 16.3017 32.0312 16.4087C32.0312 21.2975 28.9883 25.641 24.4326 27.2972C24.4791 27.0526 24.5039 26.8017 24.5039 26.5443V24.9356C24.5039 22.718 22.7078 20.9138 20.5 20.9138C18.2922 20.9138 16.4961 22.718 16.4961 24.9356V26.5443C16.4961 26.8033 16.5217 27.0567 16.5682 27.302C12.0125 25.6442 8.96875 21.2991 8.96875 16.4095V16.4087ZM18.0977 26.5435V24.9348C18.0977 23.6044 19.1755 22.5217 20.5 22.5217C21.8245 22.5217 22.9023 23.6044 22.9023 24.9348V26.5435C22.9023 27.8739 21.8245 28.9565 20.5 28.9565C19.1755 28.9565 18.0977 27.8739 18.0977 26.5435ZM25.3047 35.3913H15.6953V33.7826C15.6953 32.1128 16.5818 30.5491 17.9904 29.674C18.6774 30.2306 19.5503 30.5652 20.5 30.5652C21.4497 30.5652 22.3226 30.2306 23.0096 29.674C24.4174 30.5491 25.3047 32.1128 25.3047 33.7826V35.3913ZM35.2344 16.4087C35.2344 22.5451 31.4739 28.0187 25.8164 30.2121C25.4969 29.7327 25.1133 29.296 24.6761 28.9155L24.7049 28.9058C30.0453 27.0961 33.6328 22.0737 33.6328 16.4087C33.6328 16.3017 33.6296 16.1947 33.6272 16.087H35.2296C35.232 16.1947 35.2344 16.3017 35.2344 16.4087ZM39.3984 14.4783H29.7891V12.8696C29.7891 11.2013 30.6763 9.63609 32.0841 8.76096C32.7712 9.31756 33.644 9.65217 34.5938 9.65217C35.5435 9.65217 36.4163 9.31756 37.1034 8.76096C38.5112 9.63609 39.3984 11.1989 39.3984 12.8696V14.4783Z" fill="white"></path><path d="M7.86609 24.687C7.42406 24.687 7.06531 25.0474 7.06531 25.4914C7.06531 25.9354 7.42406 26.2957 7.86609 26.2957C8.30812 26.2957 8.66687 25.9354 8.66687 25.4914C8.66687 25.0474 8.30812 24.687 7.86609 24.687Z" fill="white"></path></g><defs><clipPath id="clip0_61_65"><rect width="41" height="37" fill="white"></rect></clipPath></defs></svg>