<svg xmlns="http://www.w3.org/2000/svg" width="43" height="35" viewBox="0 0 43 35" fill="none"><g clip-path="url(#clip0_61_73)"><path d="M27.326 7.97361L20.3662 1.09139C19.6549 0.387883 18.7058 0 17.6938 0C16.6818 0 15.7328 0.387883 15.0214 1.09139L14.7057 1.40369C14.3773 1.72762 14.3773 2.25421 14.7057 2.57813C15.0332 2.90206 15.5657 2.90289 15.8932 2.57813L16.209 2.26583C16.6029 1.87629 17.1303 1.66117 17.6938 1.66117C18.2574 1.66117 18.7839 1.87546 19.1778 2.26583L25.543 8.56083L23.0881 10.9886C22.895 11.1797 22.8085 11.4504 22.8538 11.7162C22.9 11.982 23.0739 12.2088 23.3199 12.325C23.4594 12.3907 23.5862 12.4795 23.6962 12.5892C24.2278 13.1149 24.2278 13.9713 23.6962 14.4979C23.1646 15.0244 22.2987 15.0236 21.7662 14.4979C21.6562 14.389 21.5663 14.2636 21.4992 14.1258C21.3816 13.8824 21.1523 13.7105 20.8836 13.6648C20.614 13.6191 20.3402 13.7055 20.1479 13.8965L17.693 16.3243L15.9192 14.5701C17.0329 13.3915 17.0085 11.536 15.8462 10.3873C14.6838 9.23776 12.8085 9.21367 11.6167 10.315L9.84297 8.56083L10.5484 7.86397C10.876 7.53922 10.876 7.01346 10.5484 6.68953C10.2201 6.3656 9.68844 6.3656 9.3609 6.68953L1.10355 14.8567C0.392207 15.5602 0 16.4987 0 17.4996C0 18.5004 0.392207 19.439 1.10355 20.1425L15.0223 33.9078C15.7588 34.6362 16.7263 35.0008 17.6947 35.0008C18.663 35.0008 19.6297 34.6362 20.3671 33.9078L27.3268 27.0256C27.6544 26.7016 27.6544 26.175 27.3268 25.8511L24.2782 22.8361C24.085 22.6451 23.8113 22.5595 23.5425 22.6044C23.2738 22.65 23.0445 22.822 22.9269 23.0653C22.8605 23.2032 22.7707 23.3286 22.6598 23.4374C22.402 23.6924 22.0593 23.8328 21.6948 23.8328C21.3304 23.8328 20.9877 23.6924 20.7299 23.4374C20.1974 22.9117 20.1974 22.0553 20.7299 21.5287C20.8399 21.4199 20.9667 21.3311 21.1061 21.2646C21.3522 21.1483 21.526 20.9216 21.5722 20.6558C21.6184 20.39 21.5311 20.1184 21.3379 19.9282L18.883 17.5004L20.6568 15.7462C21.222 16.2687 21.956 16.556 22.7337 16.556C23.5114 16.556 24.311 16.2429 24.8863 15.674C25.4615 15.105 25.7782 14.3492 25.7782 13.5452C25.7782 12.7412 25.4884 12.0501 24.9593 11.4911L27.3268 9.14972C27.6552 8.82496 27.6552 8.2992 27.3268 7.97527L27.326 7.97361ZM2.29109 18.9672C1.89721 18.5777 1.67969 18.0561 1.67969 17.4988C1.67969 16.9414 1.89637 16.4207 2.29109 16.0311L8.65627 9.73611L11.1111 12.1639C11.3035 12.3541 11.5772 12.4405 11.8468 12.3956C12.1156 12.35 12.3449 12.178 12.4624 11.9355C12.5288 11.7976 12.6187 11.6722 12.7295 11.5626C13.262 11.0368 14.127 11.0368 14.6595 11.5626C15.1919 12.0883 15.1919 12.9447 14.6595 13.4712C14.5486 13.5809 14.4226 13.6689 14.2832 13.7354C14.0371 13.8517 13.8633 14.0784 13.8171 14.3442C13.7709 14.61 13.8583 14.8816 14.0514 15.0718L16.5063 17.4996L14.7325 19.2538C13.5408 18.1524 11.6646 18.1765 10.5031 19.326C9.34158 20.4756 9.31639 22.3303 10.43 23.5089L8.65627 25.2631L2.29109 18.9672ZM19.4676 20.4282C18.3539 21.6068 18.3783 23.4615 19.5406 24.611C20.1159 25.18 20.8802 25.4931 21.6932 25.4931C22.5061 25.4931 23.2049 25.2066 23.7701 24.6833L25.5438 26.4375L19.1787 32.7325C18.7848 33.122 18.2574 33.3372 17.6947 33.3372C17.132 33.3372 16.6045 33.1229 16.2098 32.7325L9.84465 26.4375L12.2995 24.0097C12.4918 23.8187 12.5792 23.5479 12.5338 23.2821C12.4876 23.0163 12.3138 22.7896 12.0677 22.6733C11.9283 22.6077 11.8015 22.5188 11.6915 22.4092C11.159 21.8834 11.159 21.0271 11.6915 20.5005C11.9493 20.2455 12.292 20.1051 12.6564 20.1051C13.0209 20.1051 13.3636 20.2455 13.6214 20.5005C13.7323 20.6101 13.8213 20.7355 13.8885 20.8726C14.0061 21.1159 14.2354 21.2879 14.5041 21.3336C14.7729 21.3792 15.0475 21.2929 15.2398 21.1018L17.6947 18.674L19.4684 20.4282H19.4676Z" fill="white"></path><path d="M39.2207 10.3481H29.3786C28.915 10.3481 28.5388 10.7202 28.5388 11.1787V15.4429C28.5388 15.7129 28.6715 15.9654 28.894 16.1207C29.1166 16.276 29.4021 16.3159 29.6591 16.2254C29.8044 16.1747 29.9581 16.1489 30.1143 16.1489C30.8668 16.1489 31.4791 16.7544 31.4791 17.4986C31.4791 18.2428 30.8668 18.8483 30.1143 18.8483C29.9581 18.8483 29.8052 18.8226 29.6591 18.7719C29.4021 18.6822 29.1166 18.7213 28.894 18.8766C28.6715 19.0327 28.5388 19.2852 28.5388 19.5552V23.8194C28.5388 24.2779 28.915 24.65 29.3786 24.65H32.7271C32.7825 26.2621 34.1262 27.557 35.7698 27.557C37.4134 27.557 38.7563 26.2621 38.8126 24.65H42.161C42.6246 24.65 43.0009 24.2779 43.0009 23.8194V14.0858C43.0009 12.0251 41.3061 10.3481 39.2224 10.3481H39.2207ZM41.3203 22.9888H37.8484C37.5755 22.9888 37.3202 23.12 37.1631 23.3401C37.0052 23.5603 36.9658 23.8427 37.0565 24.0968C37.1077 24.2405 37.1337 24.3925 37.1337 24.547C37.1337 25.2912 36.5215 25.8967 35.769 25.8967C35.0165 25.8967 34.4042 25.2912 34.4042 24.547C34.4042 24.3925 34.4303 24.2413 34.4815 24.0968C34.5722 23.8427 34.5327 23.5603 34.3748 23.3401C34.2178 23.12 33.9616 22.9888 33.6895 22.9888H30.2176V20.5079C31.8477 20.453 33.1571 19.1241 33.1571 17.4986C33.1571 15.8732 31.8477 14.5451 30.2176 14.4894V12.0085H39.2199C40.3772 12.0085 41.3187 12.9396 41.3187 14.0849V22.988L41.3203 22.9888Z" fill="white"></path><path d="M12.6279 5.46439C13.0915 5.46439 13.4677 5.09229 13.4677 4.63381C13.4677 4.17532 13.0915 3.80322 12.6279 3.80322C12.1643 3.80322 11.7881 4.17532 11.7881 4.63381C11.7881 5.09229 12.1643 5.46439 12.6279 5.46439Z" fill="white"></path></g><defs><clipPath id="clip0_61_73"><rect width="43" height="35" fill="white"></rect></clipPath></defs></svg>