<svg xmlns="http://www.w3.org/2000/svg" width="38" height="38" viewBox="0 0 38 38" fill="none"><g clip-path="url(#clip0_37_315)"><path d="M34.474 30.604V29.162C34.474 28.294 33.802 27.594 32.948 27.524V25.144C32.948 24.752 32.64 24.444 32.248 24.444H32.178V16.674H32.248C32.64 16.674 32.948 16.366 32.948 15.974V13.622H33.774C35.006 13.622 36 12.628 36 11.396C36 10.164 35.006 9.17 33.774 9.17H32.542L25.108 1.736C24.982 1.61 24.8 1.526 24.618 1.526H20.32L19.004 0.209998C18.738 -0.0560019 18.29 -0.0560019 18.01 0.209998L16.694 1.526H12.396C12.214 1.526 12.032 1.596 11.906 1.736L4.472 9.156H3.24C2.008 9.156 1.014 10.15 1.014 11.382C1.014 12.614 2.008 13.608 3.24 13.608H4.066V15.96C4.066 16.352 4.374 16.66 4.766 16.66H4.836V24.43H4.766C4.374 24.43 4.066 24.738 4.066 25.13V27.51C3.212 27.58 2.54 28.28 2.54 29.148V30.59C1.658 30.814 1 31.598 1 32.522V34.286C1 34.678 1.308 35 1.7 35H35.3C35.692 35 36 34.692 36 34.3V32.536C36 31.598 35.342 30.814 34.474 30.604ZM22.252 27.482V25.13C22.252 24.738 21.944 24.43 21.552 24.43H21.482V16.66H21.552C21.944 16.66 22.252 16.352 22.252 15.96V13.608H25.43V15.96C25.43 16.352 25.738 16.66 26.13 16.66H26.2V24.43H26.13C25.738 24.43 25.43 24.738 25.43 25.13V27.482H22.252ZM11.57 27.482V25.13C11.57 24.738 11.262 24.43 10.87 24.43H10.8V16.66H10.87C11.262 16.66 11.57 16.352 11.57 15.96V13.608H14.748V15.96C14.748 16.352 15.056 16.66 15.448 16.66H15.518V24.43H15.448C15.056 24.43 14.748 24.738 14.748 25.13V27.482H11.57ZM5.452 25.83H10.156V27.482H5.452V25.83ZM20.096 24.43H16.918V16.66H20.096V24.43ZM20.852 15.274H16.148V13.622H20.852V15.274ZM16.148 25.83H20.852V27.482H16.148V25.83ZM26.844 25.83H31.548V27.482H26.844V25.83ZM30.778 24.43H27.6V16.66H30.778V24.43ZM31.548 15.274H26.844V13.622H31.548V15.274ZM24.324 2.926L30.554 9.156H27.95L21.72 2.926H24.324ZM18.5 1.694L25.976 9.17H11.024L18.5 1.694ZM12.676 2.926H15.28L9.05 9.156H6.446L12.676 2.926ZM2.4 11.382C2.4 10.92 2.764 10.556 3.226 10.556H33.774C34.236 10.556 34.6 10.934 34.6 11.382C34.6 11.83 34.236 12.208 33.774 12.208H3.226C2.764 12.208 2.4 11.83 2.4 11.382ZM10.156 13.622V15.274H5.452V13.622H10.156ZM6.222 16.674H9.4V24.444H6.222V16.674ZM3.926 29.162C3.926 29.008 4.052 28.896 4.192 28.896H32.794C32.948 28.896 33.06 29.022 33.06 29.162V30.548H3.926V29.162ZM34.6 33.6H2.4V32.536C2.4 32.214 2.666 31.948 2.988 31.948H34.026C34.348 31.948 34.614 32.214 34.614 32.536V33.6H34.6Z" fill="white"></path></g><defs><clipPath id="clip0_37_315"><rect width="35" height="35" fill="white" transform="translate(1)"></rect></clipPath></defs></svg>