<svg xmlns="http://www.w3.org/2000/svg" width="40" height="40" viewBox="0 0 40 40" fill="none"><g clip-path="url(#clip0_33_259)"><path d="M32.2944 6.60297H25.5839V4.52163C25.5839 2.60888 24.016 1.05273 22.0888 1.05273H13.7007C11.7735 1.05273 10.2056 2.60888 10.2056 4.52163V6.60297H3.49507C1.56789 6.60297 0 8.15912 0 10.0719V17.0097C0 17.9144 0.584375 18.6852 1.39803 18.9717V28.1101C1.39803 30.0229 2.96591 31.5791 4.89309 31.5791H30.8964C32.8236 31.5791 34.3914 30.0229 34.3914 28.1101V18.9717C35.2051 18.6852 35.7895 17.9144 35.7895 17.0097V10.0719C35.7895 8.15912 34.2216 6.60297 32.2944 6.60297ZM11.6036 6.60297V4.52163C11.6036 3.37412 12.5445 2.44029 13.7007 2.44029H22.0888C23.245 2.44029 24.1859 3.37412 24.1859 4.52163V6.60297H22.7878V4.52163C22.7878 4.13867 22.4747 3.82785 22.0888 3.82785H13.7007C13.3148 3.82785 13.0016 4.13867 13.0016 4.52163V6.60297H11.6036ZM21.3898 6.60297H14.3997V5.21541H21.3898V6.60297ZM30.8964 30.1915H4.89309C3.73692 30.1915 2.79605 29.2577 2.79605 28.1101V19.091H13.0016V19.7848C13.0016 20.0824 13.1925 20.3461 13.4763 20.4418C14.1257 20.6603 14.7841 20.8296 15.4482 20.9503V22.9068C15.4482 24.2458 16.5456 25.335 17.8947 25.335C19.2438 25.335 20.3413 24.2458 20.3413 22.9068V20.9503C21.006 20.8296 21.6645 20.6603 22.3132 20.4418C22.597 20.3461 22.7878 20.0824 22.7878 19.7848V19.091H32.9934V28.1101C32.9934 29.2577 32.0526 30.1915 30.8964 30.1915ZM16.8462 21.1314C17.195 21.1585 17.5445 21.1724 17.8947 21.1724C18.2449 21.1724 18.5944 21.1585 18.9433 21.1314V22.9068C18.9433 23.4806 18.4728 23.9475 17.8947 23.9475C17.3167 23.9475 16.8462 23.4806 16.8462 22.9068V21.1314ZM14.3997 19.2776V17.7035C14.3997 17.3212 14.7135 17.0097 15.0987 17.0097H20.6908C21.0759 17.0097 21.3898 17.3212 21.3898 17.7035V19.2776C19.0991 19.9513 16.6903 19.9513 14.3997 19.2776ZM34.3914 17.0097C34.3914 17.3919 34.0776 17.7035 33.6924 17.7035H22.7878C22.7878 16.5559 21.847 15.6221 20.6908 15.6221H15.0987C13.9425 15.6221 13.0016 16.5559 13.0016 17.7035H2.09704C1.71188 17.7035 1.39803 17.3919 1.39803 17.0097V10.0719C1.39803 8.92436 2.3389 7.99053 3.49507 7.99053H32.2944C33.4506 7.99053 34.3914 8.92436 34.3914 10.0719V17.0097Z" fill="white"></path><path d="M11.1835 9.37817C10.7977 9.37817 10.4845 9.68899 10.4845 10.072C10.4845 10.4549 10.7977 10.7657 11.1835 10.7657C11.5694 10.7657 11.8825 10.4549 11.8825 10.072C11.8825 9.68899 11.5694 9.37817 11.1835 9.37817Z" fill="white"></path><path d="M8.03865 9.37817H4.19408C3.80822 9.37817 3.49506 9.68899 3.49506 10.072C3.49506 10.4549 3.80822 10.7657 4.19408 10.7657H8.03865C8.4245 10.7657 8.73766 10.4549 8.73766 10.072C8.73766 9.68899 8.4245 9.37817 8.03865 9.37817Z" fill="white"></path></g><defs><clipPath id="clip0_33_259"><rect width="35.7895" height="30.5263" fill="white" transform="translate(0 1.05273)"></rect></clipPath></defs></svg>