<svg xmlns="http://www.w3.org/2000/svg" width="32" height="34" viewBox="0 0 32 34" fill="none"><path d="M4.64844 9.96113H20.5859C21.6844 9.96113 22.5781 9.06743 22.5781 7.96894V4.64849C22.5781 3.55 21.6844 2.65637 20.5859 2.65637H11.9531C11.5864 2.65637 11.2891 2.95374 11.2891 3.32043C11.2891 3.68713 11.5864 3.9845 11.9531 3.9845H20.5859C20.9521 3.9845 21.25 4.28233 21.25 4.64849V7.96894C21.25 8.3351 20.9521 8.633 20.5859 8.633H4.64844C4.28227 8.633 3.98438 8.3351 3.98438 7.96894V4.64849C3.98438 4.28233 4.28227 3.9845 4.64844 3.9845H5.97656C6.34332 3.9845 6.64062 3.68713 6.64062 3.32043C6.64062 2.95374 6.34332 2.65637 5.97656 2.65637H4.64844C3.54995 2.65637 2.65625 3.55 2.65625 4.64849V7.96894C2.65625 9.06743 3.54995 9.96113 4.64844 9.96113Z" fill="white"></path><path d="M9.96087 11.4214H4.64844C3.54995 11.4214 2.65625 12.3151 2.65625 13.4136V18.7262C2.65625 19.8247 3.54995 20.7184 4.64844 20.7184H9.96094C11.0594 20.7184 11.9531 19.8247 11.9531 18.7262V13.4136C11.9531 12.3151 11.0594 11.4214 9.96087 11.4214ZM10.6249 18.7262C10.6249 19.0924 10.327 19.3903 9.96087 19.3903H4.64844C4.28227 19.3903 3.98438 19.0924 3.98438 18.7262V13.4136C3.98438 13.0474 4.28227 12.7495 4.64844 12.7495H9.96094C10.3271 12.7495 10.625 13.0474 10.625 13.4136V18.7262H10.6249Z" fill="white"></path><path d="M9.96087 22.0466H4.64844C3.54995 22.0466 2.65625 22.9403 2.65625 24.0388V29.3515C2.65625 30.45 3.54995 31.3436 4.64844 31.3436H9.96094C11.0594 31.3436 11.9531 30.45 11.9531 29.3515V24.0388C11.9531 22.9403 11.0594 22.0466 9.96087 22.0466ZM10.6249 29.3515C10.6249 29.7177 10.327 30.0155 9.96087 30.0155H4.64844C4.28227 30.0155 3.98438 29.7177 3.98438 29.3515V24.0388C3.98438 23.6727 4.28227 23.3748 4.64844 23.3748H9.96094C10.3271 23.3748 10.625 23.6727 10.625 24.0388V29.3515H10.6249Z" fill="white"></path><path d="M25.2344 19.4237V3.32031C25.2344 1.48949 23.7449 0 21.9141 0H3.32031C1.48949 0 0 1.48949 0 3.32031V30.6797C0 32.5105 1.48949 34 3.32031 34H21.9141C22.955 34 23.9403 33.4981 24.5646 32.6717C24.5665 32.6717 24.5684 32.6718 24.5703 32.6718C28.232 32.6718 31.2109 29.6929 31.2109 26.0312C31.2109 22.5936 28.5854 19.7579 25.2344 19.4237ZM21.9141 32.6719H3.32031C2.22182 32.6719 1.32812 31.7782 1.32812 30.6797V3.32031C1.32812 2.22182 2.22182 1.32812 3.32031 1.32812H21.9141C23.0126 1.32812 23.9062 2.22182 23.9062 3.32031V19.4237C23.3327 19.4809 22.7805 19.6116 22.259 19.8058C22.4606 19.4945 22.5781 19.1239 22.5781 18.7263V13.4137C22.5781 12.3152 21.6844 11.4215 20.5859 11.4215H15.2734C14.1749 11.4215 13.2812 12.3152 13.2812 13.4137V18.7263C13.2812 19.8248 14.1749 20.7185 15.2734 20.7185H20.5859C20.5876 20.7185 20.5892 20.7184 20.5908 20.7184C20.0876 21.0962 19.6396 21.5438 19.2613 22.0467H15.2734C14.1749 22.0467 13.2812 22.9404 13.2812 24.0389V29.3516C13.2812 30.4501 14.1749 31.3437 15.2734 31.3437H20.5859C20.5873 31.3437 20.5886 31.3435 20.59 31.3435C21.2534 31.8418 22.0129 32.2186 22.8351 32.4414C22.5539 32.5895 22.2385 32.6719 21.9141 32.6719ZM20.5859 19.3903H15.2734C14.9073 19.3903 14.6094 19.0924 14.6094 18.7262V13.4136C14.6094 13.0474 14.9073 12.7495 15.2734 12.7495H20.5859C20.9521 12.7495 21.25 13.0474 21.25 13.4136V18.7262C21.25 19.0924 20.9521 19.3903 20.5859 19.3903ZM18.4848 23.3747C18.1282 24.1887 17.9297 25.0872 17.9297 26.0312C17.9297 27.5249 18.4255 28.9048 19.2611 30.0155H15.2734C14.9073 30.0155 14.6094 29.7177 14.6094 29.3515V24.0388C14.6094 23.6726 14.9073 23.3747 15.2734 23.3747H18.4848ZM24.5703 31.3437C21.641 31.3437 19.2578 28.9605 19.2578 26.0312C19.2578 23.1019 21.641 20.7187 24.5703 20.7187C27.4996 20.7187 29.8828 23.1019 29.8828 26.0312C29.8828 28.9605 27.4996 31.3437 24.5703 31.3437Z" fill="white"></path><path d="M24.7324 24.1854C24.8507 24.1854 24.9619 24.2314 25.0455 24.3151C25.3048 24.5743 25.7253 24.5743 25.9846 24.3151C26.244 24.0557 26.244 23.6353 25.9846 23.3759C25.7721 23.1634 25.5149 23.0118 25.2344 22.9293V22.7108C25.2344 22.3441 24.9371 22.0468 24.5704 22.0468C24.2036 22.0468 23.9063 22.3441 23.9063 22.7108V23.061C23.7513 23.1429 23.6078 23.2484 23.4803 23.3759C23.1458 23.7104 22.9616 24.155 22.9616 24.628C22.9616 25.101 23.1458 25.5457 23.4803 25.8802L24.7213 27.1212C24.8049 27.2048 24.851 27.316 24.851 27.4342C24.851 27.5524 24.805 27.6637 24.7213 27.7473C24.6377 27.8309 24.5266 27.877 24.4083 27.877C24.29 27.877 24.1789 27.8309 24.0952 27.7473C23.8359 27.488 23.4154 27.488 23.1561 27.7473C22.8967 28.0066 22.8967 28.4271 23.1561 28.6865C23.3686 28.8989 23.6258 29.0506 23.9063 29.133V29.3515C23.9063 29.7182 24.2036 30.0156 24.5704 30.0156C24.9371 30.0156 25.2344 29.7182 25.2344 29.3515V29.0013C25.3894 28.9194 25.5329 28.8139 25.6604 28.6865C25.9949 28.352 26.1791 27.9073 26.1791 27.4343C26.1791 26.9613 25.9949 26.5166 25.6604 26.1821L24.4194 24.9411C24.3358 24.8575 24.2898 24.7463 24.2898 24.6281C24.2898 24.5099 24.3358 24.3987 24.4194 24.3151C24.503 24.2314 24.6141 24.1854 24.7324 24.1854Z" fill="white"></path><path d="M8.63281 15.4059H7.96875V14.7418C7.96875 14.3751 7.67145 14.0778 7.30469 14.0778C6.93793 14.0778 6.64062 14.3751 6.64062 14.7418V15.4059H5.97656C5.6098 15.4059 5.3125 15.7033 5.3125 16.0699C5.3125 16.4366 5.6098 16.734 5.97656 16.734H6.64062V17.3981C6.64062 17.7648 6.93793 18.0621 7.30469 18.0621C7.67145 18.0621 7.96875 17.7648 7.96875 17.3981V16.734H8.63281C8.99957 16.734 9.29688 16.4366 9.29688 16.0699C9.29688 15.7033 8.99951 15.4059 8.63281 15.4059Z" fill="white"></path><path d="M19.2578 15.4059H16.6016C16.2348 15.4059 15.9375 15.7033 15.9375 16.0699C15.9375 16.4366 16.2348 16.734 16.6016 16.734H19.2578C19.6246 16.734 19.9219 16.4366 19.9219 16.0699C19.9219 15.7033 19.6246 15.4059 19.2578 15.4059Z" fill="white"></path><path d="M8.71338 25.2864C8.45407 25.0271 8.03358 25.0271 7.7742 25.2864L7.30471 25.7559L6.83515 25.2864C6.57583 25.0271 6.15535 25.0271 5.89596 25.2864C5.63665 25.5457 5.63665 25.9662 5.89596 26.2255L6.36552 26.6951L5.89596 27.1647C5.63665 27.424 5.63665 27.8445 5.89596 28.1038C6.02566 28.2335 6.19559 28.2983 6.36552 28.2983C6.53546 28.2983 6.70546 28.2335 6.83508 28.1038L7.30471 27.6342L7.77426 28.1038C7.90396 28.2334 8.07389 28.2983 8.24382 28.2983C8.41376 28.2983 8.58376 28.2334 8.71338 28.1038C8.9727 27.8445 8.9727 27.424 8.71338 27.1646L8.24382 26.695L8.71338 26.2255C8.9727 25.9662 8.9727 25.5457 8.71338 25.2864Z" fill="white"></path><path d="M8.96511 3.9845C9.33187 3.9845 9.62917 3.68713 9.62917 3.32043C9.62917 2.95374 9.33187 2.65637 8.96511 2.65637H8.96458C8.59782 2.65637 8.30078 2.95374 8.30078 3.32043C8.30078 3.68713 8.59835 3.9845 8.96511 3.9845Z" fill="white"></path></svg>