<svg xmlns="http://www.w3.org/2000/svg" width="45" height="26" viewBox="0 0 45 26" fill="none"><path d="M44.2276 14.8518L42.9959 2.43503C42.9285 1.75536 42.5998 1.14256 42.0704 0.709407C41.545 0.279621 40.8861 0.0801083 40.2155 0.147851L35.926 0.580315C34.833 0.69057 33.9698 1.48655 33.7161 2.50087L32.6157 2.61182L29.3724 0.674066C28.2731 0.0173768 27.9017 -0.0712761 26.7229 0.0413116L22.1198 0.480948L17.5174 0.0413116C16.3384 -0.0713625 15.967 0.0174632 14.8679 0.674066L11.6246 2.61182L10.5241 2.50087C10.2703 1.48655 9.4072 0.69057 8.31416 0.580402L4.02468 0.147937C3.35356 0.0801946 2.69514 0.279794 2.16979 0.709493C1.64038 1.14265 1.31169 1.75544 1.24429 2.43512L0.0126534 14.8518C-0.126202 16.2521 0.893741 17.5055 2.28627 17.6458L6.57583 18.0783C6.66155 18.087 6.74692 18.0912 6.83203 18.0912C7.41277 18.0912 7.9726 17.8915 8.43081 17.5167C8.72796 17.2735 8.96186 16.9738 9.1218 16.6373L9.38413 16.6638C8.78845 17.6454 8.91088 18.9484 9.75283 19.7972C10.2314 20.2797 10.8701 20.5455 11.551 20.5455C11.7288 20.5455 11.9035 20.5274 12.0734 20.4921C12.1875 20.894 12.4014 21.2729 12.7147 21.5889C13.1933 22.0715 13.8319 22.3372 14.5129 22.3372C14.6905 22.3372 14.8653 22.3192 15.0351 22.2838C15.1493 22.6857 15.3631 23.0647 15.6765 23.3806C16.1551 23.8631 16.7937 24.1289 17.4747 24.1289C17.6525 24.1289 17.8272 24.1108 17.997 24.0755C18.1112 24.4773 18.325 24.8564 18.6384 25.1723C19.117 25.6548 19.7556 25.9206 20.4366 25.9206C21.1175 25.9206 21.7562 25.6548 22.2348 25.1723L23.2041 24.1951C23.6762 24.4804 24.1978 24.6292 24.7251 24.6291C25.0978 24.6291 25.4735 24.5552 25.8361 24.4039C26.5096 24.1228 27.0293 23.62 27.3256 23.0028C28.0673 23.2353 28.8246 23.1465 29.4834 22.7246C30.0447 22.3651 30.4519 21.8082 30.6435 21.1999C31.7154 21.2933 32.7277 20.7664 33.2952 20.0297C34.0639 19.0316 34.0366 17.7751 33.2582 16.8248L35.1186 16.6372C35.2785 16.9736 35.5124 17.2734 35.8097 17.5166C36.268 17.8915 36.8276 18.0911 37.4084 18.0911C37.4934 18.0911 37.5789 18.0868 37.6646 18.0782L41.9541 17.6458C43.3466 17.5055 44.3664 16.252 44.2276 14.8518ZM26.8871 1.76158C27.694 1.6845 27.6941 1.6845 28.4861 2.15767L31.9748 4.24196C32.1342 4.33718 32.3201 4.37849 32.5046 4.35991L33.7379 4.23557L34.799 14.9326L31.721 15.243L27.1366 10.5787C28.7241 10.2349 30.0209 9.29847 30.8221 7.89929C31.0593 7.48523 30.9158 6.9572 30.5017 6.7201C30.0875 6.48283 29.5596 6.62652 29.3225 7.0405C28.7109 8.10866 27.6725 8.78902 26.3988 8.95639C24.9341 9.14873 23.3619 8.64135 22.3922 7.66384C22.2214 7.49163 21.9862 7.39978 21.7436 7.40894C21.5013 7.41879 21.2742 7.53008 21.1179 7.71559L20.0316 9.00512C19.2145 9.97504 18.8044 10.4618 16.1759 10.4618C16.0424 10.4618 15.9441 10.4244 15.9064 10.3595C15.8654 10.2887 15.8832 10.1691 15.9529 10.0474C16.6367 8.85348 17.2571 7.82559 17.8572 6.83148C18.522 5.73006 19.2095 4.59113 19.9825 3.22738C20.3509 2.57726 20.5924 2.36271 21.3842 2.28702L22.2037 2.20873C22.209 2.20821 22.2143 2.20778 22.2195 2.20726L26.8871 1.76158ZM11.5509 18.8174C11.3342 18.8174 11.1314 18.7332 10.9797 18.5803C10.6647 18.2627 10.6647 17.726 10.9797 17.4083L12.1644 16.2138C12.3161 16.0609 12.519 15.9767 12.7357 15.9767C12.9524 15.9767 13.1552 16.0609 13.3069 16.2138C13.6219 16.5315 13.6219 17.0681 13.307 17.3858L13.3069 17.3859L12.7146 17.9831L12.1223 18.5803C11.9705 18.7332 11.7676 18.8174 11.5509 18.8174ZM14.5128 20.6092C14.2961 20.6092 14.0933 20.5249 13.9416 20.3721C13.6265 20.0544 13.6265 19.5177 13.9416 19.2001L14.5339 18.6028L14.5372 18.5994L15.1262 18.0056C15.2779 17.8526 15.4808 17.7684 15.6974 17.7684C15.9141 17.7684 16.117 17.8526 16.2687 18.0055C16.5837 18.3231 16.5837 18.8599 16.2687 19.1775L15.6763 19.7747L15.0839 20.372C14.9323 20.5249 14.7295 20.6092 14.5128 20.6092ZM17.4746 22.4009C17.2579 22.4009 17.055 22.3167 16.9034 22.1638C16.5884 21.8462 16.5884 21.3095 16.9033 20.9919L16.9034 20.9918L17.4957 20.3945L18.088 19.7974C18.2398 19.6444 18.4426 19.5602 18.6594 19.5602C18.8761 19.5602 19.0789 19.6444 19.2305 19.7973C19.5455 20.1149 19.5455 20.6517 19.2305 20.9692L18.6382 21.5665L18.0459 22.1636C17.8942 22.3167 17.6913 22.4009 17.4746 22.4009ZM22.1925 22.761L21.0077 23.9555C20.8561 24.1085 20.6532 24.1926 20.4365 24.1926C20.2198 24.1926 20.017 24.1084 19.8652 23.9555C19.5502 23.6379 19.5502 23.1011 19.8652 22.7835L20.4576 22.1863L21.0499 21.5891C21.2016 21.4362 21.4045 21.3519 21.6212 21.3519C21.8379 21.3519 22.0408 21.4362 22.1924 21.589C22.5076 21.9066 22.5076 22.4433 22.1925 22.761ZM31.926 18.9754C31.6506 19.3332 30.9881 19.7185 30.2928 19.3136C29.9917 19.1385 29.615 19.161 29.3371 19.371C29.0592 19.5809 28.9346 19.9372 29.021 20.2746C29.1037 20.5979 28.8887 21.0535 28.5513 21.2694C28.1867 21.5031 27.7597 21.4245 27.2822 21.0369C27.0194 20.8234 26.6561 20.7831 26.3526 20.9339C26.0494 21.0848 25.8622 21.3988 25.8739 21.7373C25.8934 22.3037 25.5071 22.6688 25.1703 22.8093C24.9861 22.8862 24.5652 23.0001 24.1002 22.7199C24.2768 21.8998 24.0503 21.0084 23.4193 20.3722C22.9407 19.8897 22.3021 19.6239 21.6211 19.6239C21.4435 19.6239 21.2687 19.6419 21.0989 19.6773C20.9846 19.2754 20.7709 18.8964 20.4575 18.5805C19.9789 18.098 19.3402 17.8322 18.6593 17.8322C18.4816 17.8322 18.3068 17.8503 18.137 17.8856C18.0229 17.4838 17.809 17.1047 17.4956 16.7888C17.017 16.3063 16.3784 16.0405 15.6974 16.0405C15.5198 16.0405 15.345 16.0586 15.1752 16.0939C15.061 15.692 14.8473 15.3131 14.5339 14.9972C14.0552 14.5146 13.4166 14.2488 12.7356 14.2488C12.0546 14.2488 11.4161 14.5146 10.9374 14.9972L10.8593 15.076L9.44125 14.933L9.58814 13.4526C9.63523 12.9777 9.28848 12.5544 8.81359 12.5074C8.33835 12.4601 7.91548 12.8071 7.86848 13.282L7.63647 15.6209C7.6147 15.8407 7.50807 16.039 7.33638 16.1795C7.16867 16.3168 6.95991 16.3806 6.74908 16.3593L2.45951 15.9267C2.01357 15.8818 1.6873 15.4763 1.73232 15.0228L2.96395 2.60603C2.98573 2.3863 3.09235 2.18791 3.26404 2.04741C3.43167 1.91028 3.64052 1.84626 3.85126 1.86769L8.14083 2.30015C8.58686 2.34517 8.91313 2.75067 8.86811 3.20405L8.63602 5.54307C8.58893 6.01796 8.93568 6.4411 9.41057 6.48819C9.88538 6.53502 10.3087 6.18853 10.3557 5.71364L10.5023 4.23583L11.7356 4.36017C11.7645 4.36311 11.7934 4.36449 11.8223 4.36449C11.9778 4.36449 12.131 4.3225 12.2654 4.24214L15.7541 2.15775C16.546 1.68468 16.546 1.68468 17.3531 1.76175L18.7805 1.8981C18.6741 2.04793 18.5744 2.20701 18.4788 2.37558C17.7175 3.71869 17.0363 4.84724 16.3775 5.93873C15.7724 6.94122 15.1468 7.97775 14.4532 9.18891C14.0726 9.85355 14.0569 10.6153 14.4113 11.2265C14.761 11.83 15.4207 12.1902 16.1758 12.1902C19.2696 12.1902 20.167 11.5269 21.3531 10.1189L21.8808 9.49237C22.7195 10.0994 23.7294 10.4993 24.7869 10.6536L31.8311 17.8206C32.2908 18.2801 32.1364 18.7022 31.926 18.9754ZM41.7807 15.9265L37.4911 16.3589C37.2796 16.3803 37.0715 16.3163 36.9038 16.1792C36.7321 16.0387 36.6255 15.8403 36.6037 15.6206L35.3722 3.20379C35.3272 2.75033 35.6534 2.34482 36.0995 2.29989L40.389 1.86743C40.6 1.84583 40.8085 1.90994 40.9762 2.04715C41.1479 2.18765 41.2546 2.38604 41.2763 2.60577L42.508 15.0226C42.5528 15.4759 42.2266 15.8814 41.7807 15.9265Z" fill="white"></path><path d="M4.66012 12.2528C4.18289 12.2528 3.79605 12.6396 3.79605 13.1169C3.79605 13.5941 4.18289 13.9809 4.66012 13.9809H4.66072C5.13795 13.9809 5.52453 13.5941 5.52453 13.1169C5.52453 12.6396 5.13734 12.2528 4.66012 12.2528Z" fill="white"></path><path d="M38.661 3.69861C38.1839 3.69861 37.7969 4.08545 37.7969 4.56268C37.7969 5.0399 38.1839 5.42675 38.661 5.42675H38.6617C39.1388 5.42675 39.5254 5.0399 39.5254 4.56268C39.5254 4.08545 39.1382 3.69861 38.661 3.69861Z" fill="white"></path><path d="M9.11213 8.63342H9.11153C8.6343 8.63342 8.2478 9.02027 8.2478 9.49749C8.2478 9.97472 8.63491 10.3616 9.11213 10.3616C9.58936 10.3616 9.9762 9.97472 9.9762 9.49749C9.9762 9.02027 9.58936 8.63342 9.11213 8.63342Z" fill="white"></path></svg>