<svg xmlns="http://www.w3.org/2000/svg" width="49" height="38" viewBox="0 0 49 38" fill="none"><g clip-path="url(#clip0_24_99)"><path d="M10.31 0.809952C11.39 -0.220048 12.39 -0.270048 13.31 0.649952L14.77 2.43995C10.87 6.60995 8.95 11.16 9.01 16.08C9.01 16.89 9.12 17.51 9.34 17.95C10.26 17.73 11.15 17.63 12.02 17.63C14.73 17.63 17.03 18.6 18.92 20.55C20.81 22.45 21.76 24.75 21.76 27.45C21.76 30.43 20.77 32.89 18.8 34.84C16.82 36.79 14.32 37.76 11.29 37.76C7.83 37.76 5.09 36.43 3.09 33.78C1.03 31.07 0.010001 27.8 0.010001 23.96C9.87202e-07 14.91 3.44 7.19995 10.31 0.809952ZM36.94 0.809952C38.02 -0.220048 39.02 -0.270048 39.94 0.649952L41.4 2.43995C37.5 6.60995 35.55 11.16 35.55 16.08C35.55 16.78 35.68 17.41 35.96 17.95C36.88 17.73 37.75 17.63 38.56 17.63C41.32 17.63 43.65 18.6 45.54 20.55C47.43 22.45 48.38 24.75 48.38 27.45C48.38 30.43 47.38 32.89 45.38 34.84C43.38 36.79 40.89 37.76 37.91 37.76C34.45 37.76 31.71 36.43 29.71 33.78C27.65 31.07 26.62 27.8 26.62 23.96C26.62 14.92 30.06 7.20995 36.93 0.819952L36.94 0.809952Z" fill="#00C251"></path></g><defs><clipPath id="clip0_24_99"><rect width="48.39" height="37.76" fill="white"></rect></clipPath></defs></svg>