<svg xmlns="http://www.w3.org/2000/svg" width="38" height="38" viewBox="0 0 38 38" fill="none"><g clip-path="url(#clip0_6_292)"><path d="M30.6852 25.7145C30.9689 25.1844 31.1303 24.5794 31.1303 23.9373V22.1202C31.1303 21.3055 31.1414 20.9216 31.2478 20.6635C31.3561 20.4009 31.6205 20.1204 32.1978 19.543L33.4828 18.2581C34.9562 16.7846 34.9561 14.3871 33.4828 12.9137L32.1979 11.6287C31.6218 11.0527 31.3582 10.7734 31.2509 10.5158C31.1417 10.2535 31.1303 9.86812 31.1303 9.05157V7.23462C31.1303 5.15086 29.435 3.45563 27.3513 3.45563H25.5342C24.7196 3.45563 24.3357 3.44457 24.0776 3.33814C23.8149 3.22985 23.5345 2.96548 22.9571 2.38806L21.6722 1.10319C20.9608 0.391801 20.0118 0 19 0C17.9883 0 17.0392 0.391801 16.3278 1.10319L15.0429 2.38806C14.4669 2.96415 14.1875 3.22777 13.9298 3.33502C13.6675 3.44427 13.2823 3.45563 12.4657 3.45563H10.6486C8.56485 3.45563 6.86962 5.15086 6.86962 7.23462C6.86962 7.64446 7.20189 7.97681 7.6118 7.97681C8.02171 7.97681 8.35399 7.64446 8.35399 7.23462C8.35399 5.96934 9.3834 4.94 10.6486 4.94H12.4657C14.4313 4.94 14.7025 4.82763 16.0925 3.43774L17.3774 2.15286C17.8085 1.72173 18.3847 1.48438 19 1.48438C19.6154 1.48438 20.1915 1.72173 20.6226 2.15286L21.9074 3.43774C23.2974 4.82771 23.5685 4.94 25.5342 4.94H27.3513C28.6165 4.94 29.6459 5.96934 29.6459 7.23462V9.05172C29.6459 11.0174 29.7582 11.2886 31.1482 12.6785L32.4331 13.9634C33.3278 14.8581 33.3278 16.3139 32.4331 17.2086L31.1482 18.4935C29.7583 19.8834 29.646 20.1545 29.6459 22.1202V23.9373C29.6459 25.2026 28.6165 26.232 27.3513 26.232H25.5342C23.5686 26.232 23.2974 26.3443 21.9074 27.7342L20.6225 29.0191C19.7279 29.9138 18.2721 29.9138 17.3774 29.0191L16.0924 27.7341C14.7024 26.3442 14.4313 26.232 12.4656 26.232H10.6485C9.38333 26.232 8.35392 25.2025 8.35392 23.9373V22.1202C8.35392 20.1545 8.24162 19.8833 6.85165 18.4934L5.56671 17.2084C4.67207 16.3138 4.67207 14.858 5.56671 13.9633C5.85653 13.6734 5.85653 13.2035 5.56671 12.9136C5.27688 12.6239 4.80693 12.6239 4.5171 12.9136C3.04364 14.3872 3.04371 16.7846 4.5171 18.258L5.80198 19.543C6.37807 20.119 6.64169 20.3984 6.74894 20.656C6.85811 20.9183 6.86954 21.3036 6.86954 22.1202V23.9372C6.86954 24.5793 7.03104 25.1844 7.31478 25.7145L3.61609 32.1207C3.31892 32.6349 3.3492 33.2581 3.69506 33.7473C4.03936 34.2344 4.61633 34.469 5.20058 34.3602L8.60559 33.7277L9.73468 36.9205C9.90487 37.4936 10.3957 37.911 10.9935 37.9877C11.0584 37.996 11.1232 38.0001 11.1874 38.0001C11.7215 38.0001 12.2195 37.7173 12.4918 37.2456L16.5284 30.254C17.2357 30.8666 18.1173 31.174 18.9999 31.1739C19.8822 31.1738 20.7641 30.8665 21.4713 30.2539L25.5079 37.2456C25.7803 37.7174 26.2781 38.0001 26.8123 38.0001C26.8765 38.0001 26.9413 37.996 27.0062 37.9877C27.604 37.911 28.0949 37.4935 28.2651 36.9204L29.3941 33.7277L32.7988 34.3602C33.3832 34.4686 33.9603 34.2343 34.3046 33.7473C34.6506 33.2581 34.6809 32.6349 34.3838 32.1211L30.6852 25.7145ZM11.2064 36.5034C11.2021 36.5109 11.1988 36.5144 11.1992 36.5144C11.1897 36.5182 11.1668 36.5133 11.1615 36.5075C11.1611 36.5069 11.1593 36.5036 11.1575 36.497C11.1529 36.4799 11.1475 36.463 11.1416 36.4463L9.79361 32.6346C9.67182 32.2901 9.31765 32.0853 8.95835 32.1523L4.92917 32.9008C4.92264 32.9021 4.91885 32.9021 4.91944 32.9024C4.91061 32.8984 4.89807 32.8786 4.90156 32.8632L8.33276 26.9203C8.97298 27.4185 9.77647 27.7163 10.6487 27.7163H12.4658C13.2804 27.7163 13.6643 27.7274 13.9224 27.8338C14.1851 27.9421 14.4655 28.2065 15.043 28.7838L15.4363 29.1772L11.2064 36.5034ZM33.082 32.902C33.0812 32.902 33.0774 32.9022 33.0705 32.9008L29.0417 32.1524C28.6826 32.0859 28.3283 32.2902 28.2065 32.6347L26.8584 36.4464C26.8525 36.4631 26.8472 36.4799 26.8425 36.4971C26.8408 36.5037 26.839 36.5069 26.8385 36.5075C26.8332 36.5135 26.8102 36.5184 26.8022 36.5153C26.8013 36.5144 26.798 36.5108 26.7936 36.5034L22.5638 29.1771L22.9571 28.7839C23.5331 28.2078 23.8125 27.9442 24.0702 27.8369C24.3325 27.7277 24.7177 27.7163 25.5343 27.7163H27.3514C28.2236 27.7163 29.0271 27.4185 29.6673 26.9203L33.1016 32.8693C33.102 32.8786 33.0895 32.8984 33.082 32.902Z" fill="white"></path><path d="M24.8668 11.8277C24.8668 10.665 23.9208 9.71909 22.7581 9.71909H21.9405C21.7735 9.71909 21.494 9.71902 21.4405 9.69698C21.3853 9.67427 21.1798 9.46868 21.0693 9.35817L20.4911 8.78008C20.0938 8.38279 19.5643 8.16406 19 8.16406C18.4357 8.16406 17.9061 8.38279 17.5089 8.78008L16.9307 9.35824C16.8127 9.47632 16.6151 9.6739 16.5617 9.69616C16.5066 9.71909 16.2158 9.71909 16.0597 9.71909H15.2419C14.0791 9.71924 13.1332 10.6652 13.1332 11.8279V12.6456C13.1332 12.8125 13.1332 13.092 13.1111 13.1455C13.0884 13.2006 12.8828 13.4062 12.7724 13.5166L12.1942 14.0949C11.7969 14.4921 11.5782 15.0216 11.5782 15.586C11.5782 16.1504 11.797 16.6798 12.1942 17.0771L12.7725 17.6554C12.8905 17.7735 13.088 17.971 13.1103 18.0244C13.1332 18.0795 13.1332 18.3703 13.1332 18.5265V19.3442C13.1332 20.5069 14.0793 21.4529 15.242 21.4529H16.0597C16.2267 21.4529 16.5061 21.4529 16.5595 21.475C16.6147 21.4978 16.8203 21.7033 16.9308 21.8139L17.5089 22.3919C17.9201 22.803 18.46 23.0086 19.0001 23.0086C19.54 23.0086 20.0802 22.803 20.4913 22.3919L21.0694 21.8138C21.1875 21.6957 21.3851 21.4981 21.4385 21.4758C21.4936 21.4529 21.7843 21.4529 21.9405 21.4529H22.7582C23.921 21.4529 24.867 20.5069 24.867 19.3441V18.5264C24.867 18.3595 24.867 18.08 24.889 18.0265C24.9117 17.9714 25.1173 17.7658 25.2278 17.6554L25.806 17.0771C26.2032 16.6798 26.422 16.1504 26.422 15.586C26.422 15.0217 26.2032 14.4922 25.806 14.0949L25.2278 13.5166C25.1097 13.3986 24.9121 13.201 24.8899 13.1476C24.8669 13.0926 24.8669 12.8018 24.8669 12.6455V11.8277C24.8668 11.8278 24.8668 11.8278 24.8668 11.8277ZM24.7562 16.0275L24.1781 16.6056C23.4792 17.3045 23.3825 17.5379 23.3825 18.5263V19.344C23.3825 19.6883 23.1024 19.9684 22.7581 19.9684H21.9403C20.952 19.9684 20.7186 20.0651 20.0196 20.764L19.4415 21.3422C19.1979 21.5857 18.8018 21.5856 18.5584 21.3422L17.9802 20.7641C17.2813 20.0651 17.048 19.9684 16.0595 19.9684H15.2419C14.8976 19.9684 14.6175 19.6883 14.6175 19.344V18.5263C14.6175 17.5379 14.5208 17.3045 13.8219 16.6056L13.2437 16.0274C13.1269 15.9106 13.0625 15.7537 13.0625 15.5859C13.0625 15.4181 13.1268 15.2613 13.2438 15.1443L13.8219 14.5662C14.5208 13.8674 14.6175 13.634 14.6175 12.6455V11.8278C14.6175 11.4835 14.8976 11.2035 15.2419 11.2034H16.0597C17.0481 11.2034 17.2815 11.1067 17.9804 10.4078L18.5585 9.82968C18.6754 9.71279 18.8322 9.64844 19.0001 9.64844C19.168 9.64844 19.3247 9.71279 19.4416 9.82968L20.0198 10.4078C20.7186 11.1067 20.952 11.2034 21.9405 11.2035H22.7581C23.1024 11.2035 23.3825 11.4836 23.3825 11.8279V12.6455C23.3825 13.6339 23.4792 13.8673 24.1781 14.5662L24.7563 15.1445C24.9997 15.3879 24.9997 15.784 24.7562 16.0275Z" fill="white"></path><path d="M7.43635 11.5381C7.84626 11.5381 8.17853 11.2058 8.17853 10.796C8.17853 10.3861 7.84626 10.0538 7.43635 10.0538H7.43575C7.02584 10.0538 6.69386 10.3861 6.69386 10.796C6.69386 11.2058 7.02644 11.5381 7.43635 11.5381Z" fill="white"></path></g><defs><clipPath id="clip0_6_292"><rect width="38" height="38" fill="white"></rect></clipPath></defs></svg>