<svg xmlns="http://www.w3.org/2000/svg" width="30" height="39" viewBox="0 0 30 39" fill="none"><path d="M28.4376 25.1842C27.6019 24.5032 26.3897 24.528 25.6777 25.2399C25.6721 25.2456 25.6665 25.2514 25.6609 25.2573L21.5309 29.6583L19.7094 29.7201C20.3608 28.9553 20.4253 28.0857 20.2255 27.4644C20.1534 27.2402 20.045 27.0378 19.9091 26.8587C20.3159 26.6363 20.6946 26.3566 21.03 26.0212C22.2769 24.7742 22.7684 22.9395 22.3128 21.2333C22.1859 20.7571 21.8109 20.3879 21.3334 20.2679C19.6328 19.8214 17.8059 20.3144 16.5646 21.5558C16.4561 21.6644 16.3535 21.7777 16.2566 21.8947V19.5381C20.6186 18.5037 23.8737 14.5763 23.8737 9.90235C23.8737 4.44212 19.4316 0 13.9713 0C12.6301 0 11.3289 0.26386 10.1037 0.78419C9.71653 0.948645 9.53592 1.39585 9.70038 1.78303C9.86483 2.17021 10.312 2.35089 10.6992 2.18636C11.7349 1.74655 12.8358 1.52344 13.9713 1.52344C18.5914 1.52344 22.3502 5.28222 22.3502 9.90235C22.3502 14.5225 18.5914 18.2813 13.9713 18.2813C9.35113 18.2813 5.59235 14.5225 5.59235 9.90235C5.59235 8.76716 5.81531 7.6664 6.25512 6.63069C6.41958 6.24351 6.2389 5.7963 5.85172 5.63185C5.46461 5.46762 5.01725 5.64807 4.85287 6.03533C4.33269 7.2604 4.06891 8.5615 4.06891 9.90243C4.06891 14.5763 7.32397 18.5038 11.6861 19.5382V22.6566C11.5891 22.5396 11.4866 22.4262 11.3781 22.3177C10.1368 21.0765 8.31009 20.583 6.60955 21.0296C6.13172 21.1497 5.75665 21.5189 5.62983 21.9948C5.17409 23.7013 5.66563 25.5361 6.91264 26.7831C7.15326 27.0237 7.41613 27.2357 7.69553 27.4187C6.76296 27.5902 5.85164 27.886 4.98038 28.3072C2.93982 29.2934 1.25207 30.8877 0.0994409 32.9178C-0.10828 33.2838 0.0199932 33.7487 0.385771 33.9564C0.751548 34.1641 1.2165 34.0358 1.42422 33.67C3.49153 30.0286 7.39983 28.1704 11.3806 28.9362C11.4012 28.9401 11.4219 28.9433 11.4428 28.9455C12.0194 29.0076 12.4625 29.0143 12.9726 28.9692C13.3741 28.9334 14.2447 28.6599 15.6321 28.2167C16.455 27.9537 17.6987 27.5563 17.9627 27.5304C18.3792 27.4933 18.6827 27.6431 18.7753 27.9309C18.8804 28.2577 18.69 28.7627 18.0278 29.154C16.4587 30.0811 14.9843 30.8528 13.5205 31.5133C13.137 31.6863 12.9665 32.1375 13.1395 32.521C13.3125 32.9044 13.7635 33.075 14.1471 32.902C15.183 32.4345 16.2224 31.9142 17.2933 31.3264L21.8969 31.1704C22.0983 31.1635 22.2888 31.0772 22.4266 30.9304L26.7609 26.3116C26.919 26.1625 27.2565 26.1871 27.4753 26.3654C27.8124 26.64 27.6301 27.0821 27.4179 27.4047L24.6768 31.5699C24.2788 32.1747 23.7752 32.8302 23.0583 33.1058C19.7603 34.3736 16.8172 35.1686 15.1857 35.2323L8.49183 35.4938C8.24534 35.5034 8.01881 35.6319 7.88391 35.8383L6.58792 37.8219C6.3578 38.1741 6.45675 38.6461 6.80897 38.8762C6.93755 38.9603 7.08197 39.0003 7.22487 39.0003C7.47349 39.0003 7.71717 38.8788 7.86326 38.6552L8.94414 37.0007L15.2452 36.7546C17.061 36.6837 20.108 35.8721 23.6049 34.5279C24.7309 34.095 25.4494 33.1673 25.9494 32.4074L28.6904 28.2422C29.5921 26.8717 29.1177 25.7383 28.4376 25.1842ZM20.8647 21.721C21.1381 22.8765 20.7933 24.1032 19.9527 24.9439C19.3517 25.545 18.552 25.8911 17.7227 25.9403L19.0733 24.5897C19.3707 24.2923 19.3707 23.81 19.0733 23.5124C18.7757 23.2151 18.2936 23.2151 17.996 23.5124L16.6453 24.8631C16.6943 24.0338 17.0402 23.2345 17.6418 22.633C18.4819 21.793 19.7094 21.4476 20.8647 21.721ZM13.9713 19.8047C14.2276 19.8047 14.4816 19.7949 14.7331 19.7757V26.9042C14.198 27.0742 13.5997 27.2613 13.2095 27.3672V19.7757C13.4609 19.7949 13.7149 19.8047 13.9713 19.8047ZM7.07778 22.4827C8.233 22.2095 9.46074 22.5547 10.3008 23.3948C10.9021 23.9962 11.2481 24.7954 11.2971 25.6248L9.94649 24.2742C9.64904 23.9768 9.16672 23.9768 8.86919 24.2742C8.57174 24.5716 8.57174 25.0539 8.86919 25.3515L10.2198 26.7021C9.39043 26.6529 8.59078 26.3068 7.98978 25.7057C7.14923 24.8652 6.8044 23.6384 7.07778 22.4827Z" fill="white"></path><path d="M13.4263 11.8709C13.1288 11.5735 12.6465 11.5735 12.349 11.8709C12.0515 12.1683 12.0515 12.6506 12.349 12.9482C12.5972 13.1964 12.8943 13.3667 13.2095 13.4594V13.711C13.2095 14.1316 13.5505 14.4727 13.9712 14.4727C14.3919 14.4727 14.7329 14.1316 14.7329 13.711V13.3085C14.9088 13.2159 15.0739 13.0958 15.2217 12.948C16.0135 12.1561 16.0135 10.8675 15.2217 10.0754L13.7981 8.65191C13.6 8.45387 13.6 8.13181 13.7981 7.93376C13.996 7.73579 14.3183 7.73579 14.5163 7.93376C14.8138 8.23129 15.2962 8.23114 15.5935 7.93376C15.891 7.63624 15.891 7.15399 15.5935 6.85646C15.3453 6.60822 15.0482 6.4379 14.7329 6.34527V6.09375C14.7329 5.67313 14.3919 5.33203 13.9712 5.33203C13.5505 5.33203 13.2095 5.67313 13.2095 6.09375V6.49602C13.0336 6.58864 12.8685 6.70877 12.7208 6.85646C12.3371 7.24014 12.1258 7.75019 12.1258 8.29276C12.1258 8.83534 12.3371 9.34539 12.7208 9.72906L14.1443 11.1526C14.3423 11.3506 14.3423 11.6728 14.1444 11.8708C13.9464 12.0688 13.6243 12.0688 13.4263 11.8709Z" fill="white"></path><path d="M13.9713 16.7578C17.7514 16.7578 20.8268 13.6824 20.8268 9.90232C20.8268 6.12212 17.7514 3.04675 13.9713 3.04675C10.1912 3.04675 7.11578 6.12212 7.11578 9.90232C7.11578 13.6824 10.1912 16.7578 13.9713 16.7578ZM13.9713 4.57019C16.9114 4.57019 19.3033 6.96215 19.3033 9.90232C19.3033 12.8424 16.9114 15.2344 13.9713 15.2344C11.0312 15.2344 8.63923 12.8424 8.63923 9.90232C8.63923 6.96215 11.0312 4.57019 13.9713 4.57019Z" fill="white"></path><path d="M7.50763 4.20076C7.70263 4.20076 7.8977 4.12634 8.04647 3.97758C8.34392 3.68013 8.34392 3.19781 8.04647 2.90028C7.74902 2.6029 7.26677 2.6029 6.96924 2.90028L6.96886 2.90066C6.67141 3.19811 6.67156 3.6802 6.96901 3.97773C7.11778 4.1265 7.31263 4.20076 7.50763 4.20076Z" fill="white"></path></svg>