<svg xmlns="http://www.w3.org/2000/svg" width="35" height="40" viewBox="0 0 35 40" fill="none"><g clip-path="url(#clip0_61_69)"><path d="M23.8971 0C24.4865 0.904314 23.1807 1.92905 23.1499 2.60861C23.1278 3.09596 24.2523 4.17878 24.0386 4.86273L23.8195 5.15449H18.0003L17.9996 6.9327C22.0756 6.92842 25.6349 10.521 26.839 14.8485C28.875 15.4167 33.0819 13.5308 32.7414 17.4193C35.1119 16.9285 35.1445 19.5927 34.9006 21.5791C34.7566 22.7519 34.1796 22.6458 34.0169 22.9646C33.5307 23.9169 34.3271 33.768 33.9716 35.6422C33.9916 36.0154 34.3909 36.0016 34.6091 36.3415C35.1949 37.2541 35.072 39.4801 33.9413 39.8537L1.62152 40.0001C0.793693 40.0016 0.380824 39.4906 0.000109747 38.747V36.9697C0.0239249 36.4898 0.91705 35.8573 0.933951 35.7779C1.2036 34.5133 0.636096 32.0238 1.00123 30.7403C1.22829 29.942 2.01738 30.1933 2.01738 30.4823V35.7256H3.25884V28.1718C3.25884 27.821 3.72615 26.8036 3.95409 26.4798C4.97035 25.0363 6.85428 25.0089 7.91312 26.3956C8.05557 26.5821 8.53484 27.4713 8.53484 27.6385V35.7256H10.8625V27.8163C10.8625 27.7414 11.266 26.749 11.3529 26.6007C12.4078 24.8003 15.0744 25.0794 15.8565 27.0729C15.9092 27.2072 16.1385 27.9422 16.1385 27.994V35.7256H18.4661V27.4608C18.4661 27.409 18.8455 26.7044 18.932 26.5724C19.9662 24.9945 22.0868 24.9945 23.121 26.5724C23.2075 26.7044 23.5869 27.4089 23.5869 27.4608V35.7256H25.9146V27.994C25.9146 27.2901 26.7442 26.1678 27.2596 25.8021C28.2808 25.0774 29.8022 25.3227 30.5725 26.3914C30.6706 26.5276 31.1906 27.5669 31.1906 27.6385V35.7256H32.8975V23.1061H2.01727V28.3494C2.01727 28.6748 1.13676 28.8105 0.962595 28.1356C0.643449 26.8988 1.20119 24.3075 0.933841 23.0539C0.91694 22.9744 0.0238152 22.3419 0 21.8621V18.6628C0.431088 17.514 1.1124 17.2806 2.17322 17.4195C1.83125 13.5334 6.03545 15.416 8.07533 14.8485C8.6898 13.2302 9.24271 11.2706 10.629 10.3036C11.7976 10.735 10.4906 11.8394 10.1172 12.5661C9.38297 13.9947 8.76366 15.7354 8.84499 17.4187H26.0695C25.8882 10.8457 20.2159 6.49387 14.7484 8.4507C14.0123 8.71417 13.0359 9.56029 12.5727 9.70208C12.3501 9.77021 12.1641 9.67241 11.9682 9.57512C11.4834 8.68438 13.2967 7.85914 13.8602 7.61112C14.8208 7.18838 15.8808 6.86771 16.9149 6.93307C17.0389 4.95827 16.7478 2.73456 16.907 0.791181C16.9345 0.456934 17.0414 0.244997 17.2244 0.000377112H23.897L23.8971 0ZM22.6557 1.06647H18.0004V4.08802H22.6557C22.5521 3.60821 22.0123 3.08063 22.0333 2.59403C22.0509 2.18624 22.7769 1.18928 22.6557 1.06647ZM7.914 16.1741H3.49151C3.13867 16.1741 2.92685 17.4183 3.33632 17.4183H7.75881L7.914 16.1741ZM27.1558 17.4183H31.5783C31.9878 17.4183 31.7759 16.1741 31.4231 16.1741H27.0006L27.1558 17.4183ZM1.34452 18.5139C0.757587 18.7402 0.646303 21.8668 1.47402 22.0395L33.2941 22.0495C34.3414 22.0395 34.2167 18.6489 33.4406 18.4845L1.34452 18.5139ZM7.60363 35.7253V28.1715C7.60363 27.3707 6.653 26.5255 5.96137 26.4939C5.43458 26.4697 4.3449 27.2877 4.3449 27.816V35.7253H7.60363ZM15.0521 35.7253V27.816C15.0521 27.6409 14.4504 26.8892 14.2633 26.7656C13.2242 26.079 11.7934 27.0835 11.7934 28.3493V35.4588L12.0261 35.7254H15.0521V35.7253ZM22.6557 35.7253V27.9938C22.6557 27.326 21.6019 26.4727 21.0263 26.473C20.4486 26.4732 19.397 27.3896 19.397 27.9938V35.7253H22.6557ZM30.2593 35.7253V28.1715C30.2593 27.3707 29.3087 26.5255 28.6171 26.4939C28.0903 26.4697 27.0006 27.2877 27.0006 27.816V35.7253H30.2593ZM33.7913 37.0115C33.6205 36.8152 33.2221 36.8076 32.9815 36.7844H1.93309C0.539189 36.5964 0.541165 39.121 1.93309 38.9318H32.9816C33.9331 39.2348 34.3136 37.6115 33.7915 37.0115H33.7913Z" fill="white"></path></g><defs><clipPath id="clip0_61_69"><rect width="35" height="40" fill="white"></rect></clipPath></defs></svg>